# xmcd CD database file
#
# Track frame offsets:
#	150
#	23879
#	58750
#	97334
#	147483
#	154808
#	186786
#
# Disc length: 4122 seconds
#
# Revision: 1
# Processed by: cddbd v1.5.2PL0 Copyright (c) Steve Scherf et al.
# Submitted via: CDex 1.70beta2
#
DISCID=64101807
DTITLE=Wadada Leo Smith - Kabell Years 1971-1979  (Song of Humanity) CD3
DYEAR=2004
DGENRE=Jazz
TTITLE0=Song of Humanity 
TTITLE1=Lexicon
TTITLE2=Peacocks, Gazelles, Dogwood Trees and Six Silver Coins 
TTITLE3=Of Blues and Dreams 
TTITLE4=Pneuma
TTITLE5=Tempio 
TTITLE6=Play Ebony Play Ivory 
EXTD=YEAR: 2004
EXTT0=
EXTT1=
EXTT2=
EXTT3=
EXTT4=
EXTT5=
EXTT6=
PLAYORDER=
